ffmpeg version 3.4.8-0ubuntu0.2 Copyright (c) 2000-2020 the FFmpeg developers
  built with gcc 7 (Ubuntu 7.5.0-3ubuntu1~18.04)
  configuration: --prefix=/usr --extra-version=0ubuntu0.2 --toolchain=hardened --libdir=/usr/lib/x86_64-linux-gnu --incdir=/usr/include/x86_64-linux-gnu --enable-gpl --disable-stripping --enable-avresample --enable-avisynth --enable-gnutls --enable-ladspa --enable-libass --enable-libbluray --enable-libbs2b --enable-libcaca --enable-libcdio --enable-libflite --enable-libfontconfig --enable-libfreetype --enable-libfribidi --enable-libgme --enable-libgsm --enable-libmp3lame --enable-libmysofa --enable-libopenjpeg --enable-libopenmpt --enable-libopus --enable-libpulse --enable-librubberband --enable-librsvg --enable-libshine --enable-libsnappy --enable-libsoxr --enable-libspeex --enable-libssh --enable-libtheora --enable-libtwolame --enable-libvorbis --enable-libvpx --enable-libwavpack --enable-libwebp --enable-libx265 --enable-libxml2 --enable-libxvid --enable-libzmq --enable-libzvbi --enable-omx --enable-openal --enable-opengl --enable-sdl2 --enable-libdc1394 --enable-libdrm --enable-libiec61883 --enable-chromaprint --enable-frei0r --enable-libopencv --enable-libx264 --enable-shared
  libavutil      55. 78.100 / 55. 78.100
  libavcodec     57.107.100 / 57.107.100
  libavformat    57. 83.100 / 57. 83.100
  libavdevice    57. 10.100 / 57. 10.100
  libavfilter     6.107.100 /  6.107.100
  libavresample   3.  7.  0 /  3.  7.  0
  libswscale      4.  8.100 /  4.  8.100
  libswresample   2.  9.100 /  2.  9.100
  libpostproc    54.  7.100 / 54.  7.100
[rawvideo @ 0x5652ce6b4a20] Estimating duration from bitrate, this may be inaccurate
Input #0, rawvideo, from '../../SVC-Encoder-20220109T061506Z-001/SVC-Encoder/Dataset/RollerCoaster/ERP_8x8/tile_yuv/Tile_40_480x240.yuv':
  Duration: 00:00:10.00, start: 0.000000, bitrate: 41472 kb/s
    Stream #0:0: Video: rawvideo (I420 / 0x30323449), yuv420p, 480x240, 41472 kb/s, 30 tbr, 30 tbn, 30 tbc
Stream mapping:
  Stream #0:0 -> #0:0 (rawvideo (native) -> h264 (libx264))
Press [q] to stop, [?] for help
[libx264 @ 0x5652ce6c1c60] using cpu capabilities: MMX2 SSE2Fast LZCNT SSSE3 SSE4.2 AVX
[libx264 @ 0x5652ce6c1c60] profile High, level 2.1
Output #0, rawvideo, to 'RollerCoaster_Tile_40_480x240_x264_QP_24.h264':
  Metadata:
    encoder         : Lavf57.83.100
    Stream #0:0: Video: h264 (libx264), yuv420p, 480x240, q=-1--1, 30 fps, 30 tbn, 30 tbc
    Metadata:
      encoder         : Lavc57.107.100 libx264
    Side data:
      cpb: bitrate max/min/avg: 0/0/0 buffer size: 0 vbv_delay: -1
frame=  128 fps=0.0 q=30.0 PSNR=Y:nan U:nan V:nan *:nan size=     136kB time=00:00:02.83 bitrate= 393.9kbits/s speed=5.64x    frame=  247 fps=245 q=30.0 PSNR=Y:nan U:nan V:nan *:nan size=     256kB time=00:00:06.80 bitrate= 308.4kbits/s speed=6.76x    frame=  300 fps=218 q=30.0 LPSNR=Y:inf U:inf V:inf *:inf size=     417kB time=00:00:09.93 bitrate= 344.0kbits/s speed=7.23x    
video:417kB audio:0kB subtitle:0kB other streams:0kB global headers:0kB muxing overhead: 0.000000%
[libx264 @ 0x5652ce6c1c60] frame I:2     Avg QP:21.68  size: 18990  PSNR Mean Y:44.66 U:49.68 V:49.94 Avg:45.80 Global:45.77
[libx264 @ 0x5652ce6c1c60] frame P:76    Avg QP:23.13  size:  3631  PSNR Mean Y:42.29 U:49.18 V:49.26 Avg:43.63 Global:43.59
[libx264 @ 0x5652ce6c1c60] frame B:222   Avg QP:29.41  size:   510  PSNR Mean Y:41.44 U:48.92 V:49.00 Avg:42.83 Global:42.79
[libx264 @ 0x5652ce6c1c60] consecutive B-frames:  1.0%  0.7%  1.0% 97.3%
[libx264 @ 0x5652ce6c1c60] mb I  I16..4:  4.6% 59.6% 35.9%
[libx264 @ 0x5652ce6c1c60] mb P  I16..4:  0.2%  0.6%  0.5%  P16..4: 44.4% 24.9% 14.3%  0.0%  0.0%    skip:15.0%
[libx264 @ 0x5652ce6c1c60] mb B  I16..4:  0.0%  0.0%  0.0%  B16..8: 47.6%  6.9%  0.9%  direct: 0.4%  skip:44.2%  L0:43.3% L1:48.3% BI: 8.4%
[libx264 @ 0x5652ce6c1c60] 8x8 transform intra:54.0% inter:66.6%
[libx264 @ 0x5652ce6c1c60] coded y,uvDC,uvAC intra: 82.9% 83.2% 38.8% inter: 12.0% 7.2% 0.1%
[libx264 @ 0x5652ce6c1c60] i16 v,h,dc,p: 24% 12% 25% 39%
[libx264 @ 0x5652ce6c1c60] i8 v,h,dc,ddl,ddr,vr,hd,vl,hu: 10% 29% 12%  5%  9%  6%  9%  7% 14%
[libx264 @ 0x5652ce6c1c60] i4 v,h,dc,ddl,ddr,vr,hd,vl,hu:  9% 34% 11%  4% 10%  7% 11%  3% 11%
[libx264 @ 0x5652ce6c1c60] i8c dc,h,v,p: 38% 28% 18% 17%
[libx264 @ 0x5652ce6c1c60] Weighted P-Frames: Y:0.0% UV:0.0%
[libx264 @ 0x5652ce6c1c60] ref P L0: 58.3% 16.8% 19.5%  5.4%
[libx264 @ 0x5652ce6c1c60] ref B L0: 84.3% 13.7%  1.9%
[libx264 @ 0x5652ce6c1c60] ref B L1: 87.9% 12.1%
[libx264 @ 0x5652ce6c1c60] PSNR Mean Y:41.677 U:48.991 V:49.071 Avg:43.053 Global:42.990 kb/s:341.71
